<?xml version="1.0" encoding="iso-8859-1"?>
<!-- Generator: Adobe Illustrator 19.0.0, SVG Export Plug-In . SVG Version: 6.00 Build 0)  -->
<svg version="1.1" id="Layer_1" xmlns="http://www.w3.org/2000/svg" xmlns:xlink="http://www.w3.org/1999/xlink" x="0px" y="0px"
	 viewBox="0 0 460 460" style="enable-background:new 0 0 460 460;" xml:space="preserve">
<g id="XMLID_833_">
	<path id="XMLID_834_" style="fill:#A8CFFF;" d="M459.267,211.596C449.89,93.177,350.83,0,230,0C102.975,0,0,102.975,0,230
		c0,99.116,62.698,183.586,150.595,215.921C150.589,445.918,459.267,211.596,459.267,211.596z"/>
	<path id="XMLID_835_" style="fill:#73A7E6;" d="M459.267,211.596L316,68.33l-109.282,191L63,358.33l87.588,87.588
		C175.346,455.026,202.092,460,230,460c127.026,0,230-102.975,230-230C460,223.804,459.747,217.668,459.267,211.596z"/>
	<path id="XMLID_836_" style="fill:#FFFFFF;" d="M144,68.33v37.5h-16.25c-20.678,0-37.5,16.822-37.5,37.5v41
		c0,20.678,16.822,37.5,37.5,37.5H144v46.5h96l-10-200L144,68.33L144,68.33z M127.75,196.83c-6.893,0-12.5-5.607-12.5-12.5v-41
		c0-6.893,5.607-12.5,12.5-12.5H144v66H127.75z"/>
	<rect id="XMLID_839_" x="230" y="68.33" style="fill:#E0F8FF;" width="86" height="200"/>
	<rect id="XMLID_840_" x="276" y="88.33" style="fill:#FFFFFF;" width="20" height="110"/>
	<rect id="XMLID_841_" x="276" y="218.33" style="fill:#FFFFFF;" width="20" height="20"/>
	<polygon id="XMLID_842_" style="fill:#E0F8FF;" points="346,338.331 387,348.33 387,318.33 346,318.33 	"/>
	<polygon id="XMLID_843_" style="fill:#FFFFFF;" points="346,278.33 346,298.33 387,298.33 387,268.33 	"/>
	<polygon id="XMLID_844_" style="fill:#6E1D0B;" points="397,278.33 397,258.33 356,258.33 346,278.33 	"/>
	<polygon id="XMLID_845_" style="fill:#6E1D0B;" points="397,358.33 397,338.33 346,338.33 356,358.33 	"/>
	<rect id="XMLID_846_" x="346" y="298.33" style="fill:#ADEEFF;" width="41" height="20"/>
	<polygon id="XMLID_847_" style="fill:#FC5A37;" points="209.5,258.33 219.5,308.33 209.5,358.33 63,358.33 63,258.33 	"/>
	<rect id="XMLID_848_" x="209.5" y="258.33" style="fill:#DB3916;" width="146.5" height="100"/>
	<rect id="XMLID_849_" x="103" y="258.33" style="fill:#FFE278;" width="20" height="100"/>
	<rect id="XMLID_850_" x="296" y="258.33" style="fill:#FFC85F;" width="20" height="100"/>
</g>
<g>
</g>
<g>
</g>
<g>
</g>
<g>
</g>
<g>
</g>
<g>
</g>
<g>
</g>
<g>
</g>
<g>
</g>
<g>
</g>
<g>
</g>
<g>
</g>
<g>
</g>
<g>
</g>
<g>
</g>
</svg>
