<svg xmlns="http://www.w3.org/2000/svg" fill="none" aria-hidden="true" viewBox="0 0 28 20">
<rect width="28" height="19.9967" fill="white"/>
<g clip-path="url(#clip0_7372_253)">
<path d="M13.4456 2.04729C13.823 1.85049 14.2837 2.30703 14.0831 2.68408C13.9667 2.99144 13.5251 3.07317 13.2996 2.83889C13.0606 2.61404 13.1385 2.16962 13.4456 2.04729ZM9.38625 2.48486C9.61551 2.39049 9.90573 2.60053 9.88235 2.8504C9.90668 3.12166 9.57499 3.32131 9.34131 3.19239C9.0317 3.07248 9.06712 2.56988 9.38625 2.48486ZM17.7002 3.20001C17.3419 3.15672 17.2852 2.59343 17.6301 2.48001C17.8977 2.34954 18.1431 2.59421 18.1823 2.84781C18.1262 3.06434 17.9449 3.26261 17.7002 3.20001ZM10.3099 4.21257C10.6932 3.97014 11.2401 4.33118 11.1811 4.77638C11.1612 5.2259 10.5642 5.48633 10.2273 5.18244C9.90157 4.94374 9.95093 4.39612 10.3099 4.21257ZM16.1611 4.4698C16.3321 4.0291 17.025 4.01577 17.2196 4.44478C17.412 4.77863 17.1753 5.19205 16.8326 5.30555C16.3785 5.39032 15.9473 4.89949 16.1611 4.4698ZM12.9567 5.28053C12.953 4.90174 13.298 4.61949 13.658 4.59369C13.8968 4.64157 14.1571 4.7433 14.2595 4.98426C14.4504 5.31664 14.2809 5.7743 13.9359 5.92685C13.7782 6.01525 13.5917 5.98209 13.4199 5.97179C13.1573 5.84287 12.9362 5.59006 12.9567 5.28053ZM6.91993 5.83248C7.27006 5.61724 7.74244 6.01006 7.60989 6.3904C7.5369 6.71941 7.09465 6.85326 6.84183 6.64322C6.57196 6.44642 6.61474 5.97326 6.91993 5.83248ZM19.8831 5.83179C20.1802 5.60114 20.6704 5.86573 20.635 6.24079C20.6549 6.58278 20.2311 6.84071 19.9362 6.6646C19.6114 6.51863 19.5783 6.01897 19.8831 5.83179ZM14.6544 6.51274C15.1446 6.33664 15.7269 6.54737 16.0062 6.98443C16.3748 7.51871 16.1787 8.33239 15.6068 8.63897C15.0141 9.00157 14.1488 8.69421 13.9299 8.03239C13.6814 7.43993 14.0434 6.69845 14.6544 6.51274ZM11.7782 6.57101C12.3215 6.31456 13.0527 6.52971 13.3151 7.08547C13.6239 7.62642 13.3851 8.37967 12.833 8.65897C12.2802 8.97291 11.5003 8.73491 11.2327 8.15413C10.9327 7.59248 11.1992 6.82962 11.7782 6.57101ZM8.89828 7.5556C8.93958 7.20555 9.2698 6.97776 9.60296 6.95421C9.96192 6.9975 10.2487 7.27629 10.2877 7.63958C10.2642 7.99923 9.98625 8.35075 9.60512 8.34859C9.18582 8.38469 8.8182 7.96755 8.89828 7.5556ZM17.4046 7.03032C17.8351 6.77975 18.4328 7.14452 18.4137 7.63906C18.4432 8.16304 17.7817 8.53231 17.353 8.22495C16.9077 7.96902 16.9424 7.24824 17.4046 7.03032ZM10.6077 8.87707C11.1112 8.73854 11.6869 8.97586 11.9338 9.43863C12.2043 9.90443 12.0937 10.5515 11.6736 10.8932C11.1348 11.3943 10.1411 11.1931 9.85439 10.5092C9.52486 9.88226 9.92512 9.04209 10.6077 8.87707ZM16.063 8.87447C16.5525 8.73447 17.1275 8.92313 17.3906 9.36902C17.7385 9.87897 17.5724 10.6396 17.0545 10.9683C16.512 11.3501 15.6716 11.1496 15.3731 10.5527C15.0112 9.93534 15.3753 9.06278 16.063 8.87447ZM7.36954 9.45629C7.80443 9.29179 8.28651 9.7717 8.11032 10.2029C8.0027 10.5957 7.44911 10.7409 7.16313 10.4513C6.8285 10.1793 6.9524 9.57421 7.36954 9.45629ZM19.1574 10.082C19.1449 9.72166 19.4085 9.40252 19.778 9.38261C20.0759 9.4298 20.3655 9.67006 20.3419 9.9943C20.3692 10.4225 19.8532 10.7136 19.4883 10.5124C19.3173 10.4255 19.2296 10.2501 19.1574 10.082ZM5.23119 9.66781C5.49283 9.55361 5.81647 9.78036 5.75673 10.0709C5.7427 10.3999 5.25699 10.5264 5.07854 10.2515C4.92088 10.0606 5.01525 9.76625 5.23119 9.66781ZM21.7284 9.66123C21.9127 9.53006 22.2082 9.62434 22.2812 9.83958C22.405 10.0746 22.178 10.3967 21.9134 10.357C21.542 10.3908 21.4218 9.82478 21.7284 9.66123ZM12.0288 11.2405C12.7173 11.0615 13.4574 11.6356 13.4617 12.3445C13.5067 13.0609 12.7778 13.6961 12.073 13.5307C11.5282 13.443 11.1008 12.9182 11.1185 12.3677C11.117 11.8412 11.5143 11.3519 12.0288 11.2405ZM14.7554 11.2391C15.4542 11.0437 16.2164 11.6282 16.2053 12.3534C16.2422 13.0565 15.536 13.6704 14.846 13.5309C14.1966 13.4469 13.7175 12.7335 13.8988 12.1034C13.9903 11.6835 14.3411 11.342 14.7554 11.2391ZM9.49837 11.6754C9.98192 11.5929 10.4353 12.1324 10.2392 12.5915C10.0961 13.0808 9.38409 13.2135 9.06928 12.8139C8.70002 12.4301 8.97569 11.7284 9.49837 11.6754ZM17.4945 11.697C17.9256 11.5164 18.4549 11.8894 18.4217 12.3573C18.4391 12.8725 17.7856 13.2277 17.364 12.927C16.8864 12.6571 16.9733 11.8626 17.4945 11.697ZM19.7295 13.9387C19.5606 13.624 19.8673 13.2069 20.2167 13.2651C20.3907 13.2622 20.5123 13.3992 20.6237 13.5142C20.6465 13.7007 20.6849 13.9232 20.5301 14.0669C20.3198 14.333 19.8437 14.2571 19.7295 13.9387ZM6.91846 13.3527C7.24504 13.1353 7.71499 13.4596 7.64157 13.8414C7.60253 14.1791 7.17716 14.372 6.89699 14.1804C6.59629 14.0065 6.60738 13.5113 6.91846 13.3527ZM13.3704 14.0596C13.7979 13.8709 14.3426 14.2431 14.3021 14.714C14.3338 15.2344 13.6601 15.5947 13.2421 15.2823C12.7778 15.014 12.8552 14.2246 13.3704 14.0596ZM10.3821 14.7567C10.7463 14.5651 11.2349 14.896 11.2017 15.3036C11.2128 15.6382 10.8862 15.9234 10.556 15.874C10.2825 15.8681 10.1042 15.6229 10.0165 15.3897C10.021 15.1356 10.1256 14.8526 10.3821 14.7567ZM16.4353 14.7626C16.8097 14.5312 17.3419 14.8636 17.3065 15.2994C17.3161 15.7549 16.7146 16.0467 16.366 15.7475C16.0284 15.5129 16.0696 14.9491 16.4353 14.7626ZM17.4879 17.3649C17.3213 17.1129 17.5174 16.8093 17.7879 16.7518C18.0054 16.796 18.2353 16.9596 18.1896 17.2117C18.1579 17.5529 17.6589 17.6576 17.4879 17.3649ZM9.13196 17.1461C9.19828 16.9463 9.35898 16.7478 9.59413 16.7998C9.9369 16.8241 10.0386 17.3407 9.73863 17.4999C9.46885 17.6818 9.15586 17.4327 9.13196 17.1461ZM13.1632 17.3753C13.2288 17.0798 13.6114 16.936 13.8635 17.093C14.0301 17.1645 14.0787 17.3509 14.1215 17.5094C14.0986 17.5919 14.0782 17.6745 14.0581 17.757C13.9549 17.8793 13.8223 18.0017 13.6505 17.9972C13.3313 18.0346 13.0433 17.6738 13.1632 17.3753Z" fill="#1232A6"/>
</g>
<defs>
<clipPath id="clip0_7372_253">
<rect width="17.316" height="16" fill="white" transform="translate(5 2)"/>
</clipPath>
</defs>
</svg>
