<svg xmlns="http://www.w3.org/2000/svg" fill="none" aria-hidden="true" viewBox="0 0 28 20">
<rect width="28" height="19.9967" fill="#55B88D"/>
<path d="M11.0958 3V4.67647H9.5V15.5735H11.0958V17.25H12.6916V15.5735H14.2874V17.25H15.8832V15.4949C16.0951 15.4655 16.3258 15.4524 16.5315 15.4164C17.0115 15.2494 17.4042 15.066 17.8031 14.8139C18.1211 14.5618 18.4359 14.2376 18.6759 13.8185C18.9158 13.3994 19 12.9639 19 12.3778C19 11.7065 18.7444 11.127 18.4265 10.6227C18.0276 10.1185 17.5476 9.79429 16.8307 9.6273C17.3886 9.37517 17.7876 9.04446 18.0276 8.71048C18.2676 8.37649 18.4265 7.93446 18.4265 7.34835C18.4265 6.8441 18.3611 6.42498 18.2021 6.09099C18.0431 5.75701 17.7969 5.41975 17.479 5.25276C17.1611 5.08577 16.8369 4.91877 16.357 4.83364C16.2011 4.80744 16.0422 4.78125 15.8832 4.75506V3H14.2874V4.67647H12.6916V3H11.0958ZM11.8937 6.35294H14.2126C14.4526 6.35294 14.677 6.34639 14.836 6.43153C15.076 6.43153 15.2505 6.52976 15.4094 6.61489C15.5684 6.70002 15.7274 6.76224 15.8084 6.92923C15.8894 7.09622 15.958 7.27958 15.958 7.53171C15.958 8.03596 15.877 8.36012 15.5591 8.52711C15.2411 8.77924 14.917 8.86765 14.437 8.86765H11.8937V6.35294ZM11.8937 10.5441H14.6864C15.2443 10.5441 15.7336 10.7111 16.1325 10.9632C16.5315 11.2154 16.6811 11.7131 16.6811 12.2992C16.6811 12.5513 16.6125 12.8918 16.5315 13.0588C16.3725 13.3109 16.1918 13.4714 16.0328 13.5565C15.8739 13.6417 15.6494 13.7333 15.4094 13.8185C15.1695 13.9036 14.8515 13.8971 14.6115 13.8971H11.8937V10.5441Z" fill="white"/>
</svg>
