<svg xmlns="http://www.w3.org/2000/svg" fill="none" aria-hidden="true" viewBox="0 0 28 20">
<rect width="28" height="19.9967" fill="#E6007A"/>
<path d="M14.3698 3C12.9473 3.00532 11.5845 3.57278 10.5786 4.57865C9.57278 5.58452 9.00532 6.94725 9 8.36976C8.99993 8.96286 9.09548 9.55209 9.28297 10.1148C9.35029 10.2989 9.48549 10.4504 9.66086 10.538C9.83624 10.6257 10.0385 10.643 10.2262 10.5864C10.4084 10.5172 10.5573 10.381 10.6424 10.2057C10.7276 10.0304 10.7426 9.82914 10.6844 9.64315C10.5249 9.20557 10.4539 8.74067 10.4755 8.27544C10.4978 7.52442 10.738 6.79608 11.1668 6.17914C11.5957 5.5622 12.1947 5.08327 12.8909 4.8007C13.587 4.51812 14.3504 4.44409 15.0879 4.58762C15.8254 4.73114 16.5053 5.08604 17.0447 5.60907C17.5841 6.13211 17.9598 6.80071 18.1259 7.53346C18.2921 8.2662 18.2417 9.03145 17.9807 9.73602C17.7197 10.4406 17.2594 11.054 16.656 11.5017C16.0526 11.9494 15.332 12.2119 14.582 12.2573C14.582 12.2573 13.8308 12.3044 13.4535 12.3516C13.3151 12.3711 13.1779 12.3981 13.0425 12.4325C13.0328 12.4398 13.0207 12.4433 13.0086 12.4424C12.9964 12.4416 12.985 12.4364 12.9764 12.4278C12.9678 12.4192 12.9626 12.4077 12.9618 12.3956C12.9609 12.3835 12.9644 12.3714 12.9717 12.3617L13.0896 11.725L13.7971 8.52136C13.8377 8.33061 13.8009 8.13152 13.6948 7.96789C13.5887 7.80427 13.4219 7.68951 13.2311 7.64885C13.0404 7.6082 12.8413 7.64499 12.6777 7.75113C12.514 7.85726 12.3993 8.02405 12.3586 8.2148C12.3586 8.2148 10.6743 16.037 10.6743 16.1077C10.6511 16.2021 10.6474 16.3002 10.6634 16.3961C10.6795 16.492 10.7149 16.5835 10.7676 16.6652C10.8202 16.7469 10.889 16.817 10.9697 16.8711C11.0504 16.9253 11.1413 16.9624 11.2368 16.9803C11.3314 17.0029 11.4296 17.0061 11.5255 16.9896C11.6214 16.9732 11.7129 16.9374 11.7945 16.8844C11.8761 16.8315 11.9461 16.7625 12.0002 16.6817C12.0543 16.6009 12.0915 16.5099 12.1093 16.4143C12.1329 16.32 12.3452 15.2824 12.3452 15.2824C12.4233 14.9005 12.6167 14.5517 12.8992 14.2831C13.1817 14.0144 13.5397 13.8388 13.9251 13.78C14.0868 13.7564 14.7706 13.7092 14.7706 13.7092C16.1372 13.5829 17.4035 12.9378 18.3091 11.9066C19.2147 10.8753 19.6907 9.53631 19.6394 8.16485C19.5881 6.79339 19.0132 5.49372 18.0331 4.53306C17.0529 3.57241 15.742 3.02379 14.3698 3Z" fill="white"/>
</svg>
