<svg width="28" height="20" viewBox="0 0 28 20" fill="none" xmlns="http://www.w3.org/2000/svg">
<rect width="28" height="19.9967" fill="#F3F3F3"/>
<path fill-rule="evenodd" clip-rule="evenodd" d="M13.6554 13.755C13.995 15.0506 15.214 16.0393 15.8294 15.9988C15.8509 15.9973 18.1644 15.5528 19.4308 13.3714C20.4165 11.6742 20.0808 10.0355 18.7403 9.99989C18.2581 10.036 13.0078 11.2862 13.6554 13.755ZM14.8197 4.00001C13.9467 4.00001 13.1181 4.1874 12.3685 4.52168C12.2374 4.57665 12.1096 4.63938 11.986 4.70955C11.901 4.75494 11.8161 4.79983 11.7342 4.84863L11.7537 4.85498C11.5053 5.02724 11.2915 5.2278 11.1164 5.46009C9.38251 7.75561 15.1935 9.42406 18.3001 9.42992C19.7299 10.4581 20.1311 6.53416 18.7344 5.44496C17.6448 4.50987 16.2556 3.99711 14.8197 4.00001Z" fill="#0E3CA5"/>
<path fill-rule="evenodd" clip-rule="evenodd" d="M12.6359 5.34588C11.8503 6.49998 9.23266 7.31347 8.80224 7.18659L8.80029 7.18171L8.85397 7.07777C9.30369 6.23393 9.94234 5.50543 10.7201 4.94914C10.8811 4.83348 11.048 4.72564 11.2203 4.62511C11.5858 4.41771 11.9615 4.40503 12.085 4.40015C13.2503 4.42162 12.6418 5.33661 12.6354 5.34588" fill="#5493F7"/>
<mask id="mask0_7372_2146" style="mask-type:alpha" maskUnits="userSpaceOnUse" x="8" y="8" width="4" height="8">
<path d="M8 8.00006H12.0001V15.9997H8V8.00006Z" fill="white"/>
</mask>
<g mask="url(#mask0_7372_2146)">
<path fill-rule="evenodd" clip-rule="evenodd" d="M11.9767 13.9946C12.0352 14.3737 11.9752 15.8724 11.8961 15.9988C11.8288 16.0027 11.6873 16.0115 11.2788 15.785C10.4863 15.3385 9.79622 14.7307 9.25318 14.0009C8.85591 13.4664 8.54472 12.8729 8.33087 12.2422C8.11073 11.5897 7.99896 10.9056 8.00001 10.217C7.99879 9.46005 8.13401 8.70906 8.39919 8.00006H8.40016C8.86864 8.61444 9.41031 9.17027 9.87049 9.791C10.3092 10.3815 10.9124 11.3443 11.0348 11.5502C11.7971 12.8273 11.9186 13.6154 11.9767 13.9946Z" fill="#5493F7"/>
</g>
<path fill-rule="evenodd" clip-rule="evenodd" d="M20.8001 10.2878C20.8001 11.1071 20.6439 11.8903 20.3614 12.6087C19.6196 13.409 14.6167 11.4394 14.5674 11.418C13.8832 11.1174 11.8005 10.2019 11.6126 8.76426C11.3423 6.69614 15.5253 5.25461 17.3636 5.19995C17.5837 5.20239 18.2547 5.2102 18.6456 5.52935C19.3234 6.12278 19.8663 6.8544 20.2379 7.67506C20.6095 8.49572 20.8012 9.38641 20.8001 10.2873V10.2878ZM16.4252 15.4034C16.7243 14.3445 19.34 13.2592 19.9173 13.2006C19.9885 13.1933 20.0188 13.2436 19.9876 13.3011C19.3854 14.3962 18.4938 15.298 17.4148 15.8826C16.8693 16.1471 16.269 15.9544 16.4252 15.4034Z" fill="#5493F7"/>
</svg>
