<svg xmlns="http://www.w3.org/2000/svg" fill="none" aria-hidden="true" viewBox="0 0 28 20">
<rect width="28" height="19.9967" fill="#EB337A"/>
<path d="M12.0285 4.02006C11.846 3.99194 11.8383 3.98864 11.9242 3.97552C12.0887 3.95037 12.4772 3.98465 12.7449 4.04792C13.37 4.19558 13.9387 4.57385 14.5458 5.24567L14.7071 5.42415L14.9378 5.38728C15.9098 5.23203 16.8986 5.35542 17.7257 5.73515C17.9532 5.83963 18.312 6.04759 18.3568 6.10103C18.3711 6.11805 18.3973 6.22769 18.415 6.34467C18.4764 6.7494 18.4457 7.05963 18.3212 7.29135C18.2534 7.41743 18.2496 7.4574 18.2952 7.5653C18.3316 7.65142 18.433 7.71515 18.5334 7.71501C18.7389 7.71473 18.9602 7.38451 19.0626 6.92504L19.1034 6.74253L19.184 6.83333C19.6264 7.33153 19.9739 8.01095 20.0336 8.49457L20.0491 8.62067L19.9748 8.50604C19.8468 8.30879 19.7182 8.17451 19.5535 8.06621C19.2567 7.87099 18.9428 7.80456 18.1116 7.76102C17.3609 7.72171 16.936 7.65798 16.5147 7.52143C15.7979 7.28914 15.4365 6.97979 14.585 5.86945C14.2069 5.37628 13.9731 5.10342 13.7406 4.88368C13.2122 4.38437 12.693 4.12252 12.0285 4.02006Z" fill="white"/>
<path d="M18.5261 5.12126C18.545 4.79079 18.59 4.57281 18.6807 4.37375C18.7166 4.29496 18.7502 4.23047 18.7554 4.23047C18.7606 4.23047 18.745 4.28862 18.7207 4.3597C18.6548 4.55289 18.644 4.81713 18.6894 5.12457C18.747 5.51465 18.7798 5.57093 19.1947 5.9923C19.3892 6.18994 19.6155 6.43921 19.6975 6.54623L19.8467 6.74082L19.6975 6.60176C19.5151 6.43169 19.0956 6.10003 19.0029 6.05261C18.9408 6.02082 18.9315 6.02137 18.8932 6.05929C18.8579 6.09422 18.8504 6.14672 18.8456 6.39492C18.8379 6.78175 18.7848 7.03003 18.6569 7.27829C18.5876 7.41256 18.5766 7.3839 18.6393 7.23235C18.6861 7.11918 18.6908 7.06944 18.6905 6.69497C18.6898 5.94257 18.5999 5.76169 18.0729 5.45183C17.9394 5.37333 17.7194 5.26012 17.584 5.20024C17.4487 5.14036 17.3411 5.0882 17.345 5.0843C17.36 5.06955 17.8739 5.21865 18.0809 5.29775C18.3886 5.41539 18.4394 5.43065 18.4767 5.41645C18.5018 5.40693 18.514 5.33442 18.5261 5.12126Z" fill="white"/>
<path d="M12.3828 6.40835C12.0124 5.90154 11.7833 5.12448 11.8329 4.54359L11.8482 4.36383L11.9325 4.37912C12.0909 4.40782 12.3639 4.50881 12.4917 4.58598C12.8425 4.79771 12.9943 5.07649 13.1488 5.79234C13.1941 6.00202 13.2535 6.23931 13.2808 6.31964C13.3248 6.44894 13.491 6.75096 13.6261 6.94711C13.7234 7.08838 13.6588 7.15532 13.4436 7.13601C13.115 7.10654 12.67 6.80124 12.3828 6.40835Z" fill="white"/>
<path d="M18.0768 10.1803C16.3459 9.48764 15.7363 8.88639 15.7363 7.87191C15.7363 7.72261 15.7414 7.60046 15.7477 7.60046C15.754 7.60046 15.821 7.64973 15.8966 7.70996C16.2476 7.98977 16.6406 8.10928 17.7287 8.26705C18.369 8.3599 18.7293 8.43489 19.0617 8.54445C20.1182 8.89269 20.7718 9.5994 20.9277 10.562C20.973 10.8417 20.9464 11.3662 20.873 11.6426C20.8151 11.861 20.6381 12.2545 20.5912 12.2697C20.5782 12.2738 20.5655 12.2243 20.5621 12.1568C20.5443 11.7954 20.3605 11.4435 20.0519 11.1799C19.701 10.8802 19.2296 10.6416 18.0768 10.1803Z" fill="white"/>
<path d="M16.8617 10.4681C16.84 10.3399 16.8024 10.1761 16.7781 10.1041L16.7339 9.97333L16.8159 10.0648C16.9295 10.1915 17.0192 10.3535 17.0952 10.5694C17.1532 10.7341 17.1598 10.7831 17.1593 11.0508C17.1589 11.3136 17.1516 11.3687 17.0981 11.517C17.0136 11.7508 16.9087 11.9166 16.7327 12.0946C16.4166 12.4145 16.01 12.5915 15.4234 12.665C15.3215 12.6777 15.0243 12.6992 14.763 12.7127C14.1045 12.7468 13.6711 12.8171 13.2817 12.953C13.2257 12.9725 13.1757 12.9845 13.1707 12.9794C13.1549 12.9638 13.42 12.8067 13.639 12.7018C13.9478 12.554 14.2552 12.4734 14.9439 12.3594C15.2841 12.303 15.6355 12.2347 15.7247 12.2075C16.5672 11.9508 17.0003 11.2882 16.8617 10.4681Z" fill="white"/>
<path d="M17.6551 11.8687C17.4251 11.3773 17.3723 10.9029 17.4983 10.4605C17.5118 10.4132 17.5335 10.3745 17.5465 10.3745C17.5596 10.3745 17.6138 10.4037 17.6671 10.4393C17.7731 10.5102 17.9857 10.6296 18.5519 10.9365C19.2585 11.3194 19.6614 11.6159 19.9354 11.9546C20.1753 12.2513 20.3238 12.5892 20.3953 13.0012C20.4357 13.2346 20.412 13.7961 20.3517 14.0311C20.1617 14.7721 19.7202 15.3542 19.0904 15.6938C18.9982 15.7436 18.9153 15.7844 18.9064 15.7846C18.8974 15.7848 18.931 15.6998 18.9811 15.5958C19.1929 15.1557 19.2171 14.7275 19.0569 14.2509C18.9588 13.9591 18.7588 13.603 18.3551 13.0012C17.8856 12.3016 17.7706 12.1154 17.6551 11.8687Z" fill="white"/>
<path d="M11.1536 14.5199C11.7959 13.9808 12.5952 13.5979 13.3232 13.4803C13.6369 13.4297 14.1596 13.4497 14.4501 13.5237C14.9158 13.6421 15.3324 13.9075 15.5491 14.2236C15.7608 14.5325 15.8517 14.8017 15.9462 15.4007C15.9835 15.6371 16.0241 15.8743 16.0364 15.928C16.1074 16.2385 16.2456 16.4866 16.4169 16.6112C16.689 16.8092 17.1574 16.8214 17.6182 16.6428C17.6964 16.6124 17.7643 16.5914 17.7691 16.5962C17.7858 16.6127 17.5538 16.767 17.3901 16.8483C17.1698 16.9577 16.9946 17 16.7619 17C16.3399 17 15.9895 16.7866 15.6971 16.3515C15.6396 16.2658 15.5102 16.0094 15.4097 15.7815C15.101 15.0817 14.9486 14.8686 14.5901 14.6352C14.2782 14.4323 13.8759 14.3959 13.5733 14.5433C13.1758 14.7371 13.0649 15.242 13.3496 15.562C13.4628 15.6892 13.6738 15.7988 13.8463 15.8201C14.1691 15.8601 14.4466 15.616 14.4466 15.292C14.4466 15.0817 14.3652 14.9617 14.1605 14.8698C13.8808 14.7444 13.5802 14.891 13.5816 15.1521C13.5822 15.2635 13.631 15.3334 13.7433 15.3839C13.8154 15.4163 13.817 15.4189 13.7583 15.4067C13.5017 15.3539 13.4416 15.0464 13.6479 14.8423C13.8956 14.5973 14.4078 14.7054 14.5837 15.0399C14.6576 15.1804 14.6662 15.4602 14.6018 15.6291C14.4576 16.0073 14.0371 16.2061 13.6107 16.0979C13.3203 16.0242 13.202 15.9444 12.852 15.586C12.2436 14.9632 12.0075 14.8425 11.1304 14.7064L10.9624 14.6803L11.1536 14.5199Z" fill="white"/>
<path fill-rule="evenodd" clip-rule="evenodd" d="M8.29919 3.37254C10.3308 5.82325 11.73 6.83436 11.8855 7.04798C12.0139 7.22437 11.9656 7.38295 11.7456 7.50723C11.6233 7.57633 11.3718 7.64634 11.2459 7.64634C11.1035 7.64634 11.0546 7.59175 11.0546 7.59175C10.9721 7.51391 10.9256 7.52752 10.5016 6.77947C9.91291 5.87161 9.42027 5.1185 9.40683 5.10589C9.37575 5.07673 9.37629 5.07771 10.4415 6.97213C10.6137 7.36697 10.4758 7.51191 10.4758 7.56814C10.4758 7.68254 10.4444 7.74267 10.3024 7.90009C10.0657 8.16254 9.95988 8.45743 9.8835 9.06773C9.79788 9.75188 9.55709 10.2351 8.88983 11.0623C8.49923 11.5464 8.43532 11.6352 8.33676 11.8303C8.21261 12.0761 8.17848 12.2137 8.16464 12.524C8.15002 12.8521 8.1785 13.0641 8.27935 13.3778C8.36765 13.6524 8.45981 13.8337 8.69542 14.1964C8.89875 14.5094 9.01582 14.742 9.01582 14.8331C9.01582 14.9054 9.02973 14.9055 9.3448 14.8348C10.0988 14.6656 10.7111 14.3679 11.0554 14.0031C11.2685 13.7774 11.3186 13.6527 11.3202 13.3434C11.3212 13.141 11.3141 13.0986 11.259 12.9822C11.1695 12.7927 11.0064 12.6352 10.6469 12.391C10.1759 12.0709 9.97469 11.8133 9.91912 11.459C9.87354 11.1682 9.92642 10.9631 10.187 10.4203C10.4567 9.8585 10.5235 9.61909 10.5687 9.05278C10.5979 8.68691 10.6384 8.54262 10.7441 8.4268C10.8544 8.30603 10.9537 8.26512 11.2267 8.22805C11.6718 8.16763 11.9552 8.05318 12.1881 7.83984C12.3902 7.65475 12.4748 7.47642 12.4877 7.20795L12.4976 7.00447L12.3847 6.87361C11.9757 6.39969 8.02532 3 8.00016 3C7.99478 3 8.12935 3.16765 8.29919 3.37254ZM9.24539 12.8953C9.33785 12.7325 9.28872 12.5233 9.13406 12.421C8.98793 12.3245 8.76091 12.37 8.76091 12.4958C8.76091 12.5343 8.78228 12.5622 8.83043 12.5868C8.91152 12.6283 8.9174 12.6749 8.8536 12.7702C8.789 12.8667 8.79421 12.9516 8.86832 13.0093C8.98776 13.1022 9.15684 13.0511 9.24539 12.8953Z" fill="white"/>
<path fill-rule="evenodd" clip-rule="evenodd" d="M12.7785 8.33477C12.5695 8.39855 12.3664 8.61864 12.3036 8.84941C12.2652 8.9902 12.287 9.23715 12.3444 9.31342C12.4372 9.43661 12.527 9.46906 12.77 9.46736C13.2458 9.46406 13.6595 9.26124 13.7075 9.00769C13.747 8.79984 13.5653 8.5118 13.3151 8.38535C13.1859 8.32012 12.9113 8.29424 12.7785 8.33477ZM13.3347 8.76706C13.4081 8.66343 13.376 8.55144 13.2512 8.4757C13.0135 8.33147 12.6541 8.45082 12.6541 8.67396C12.6541 8.78503 12.8416 8.90622 13.0133 8.90622C13.1277 8.90622 13.2841 8.83845 13.3347 8.76706Z" fill="white"/>
</svg>
