<svg xmlns="http://www.w3.org/2000/svg" fill="none" aria-hidden="true" viewBox="0 0 28 20">
<rect width="28" height="19.9967" fill="black"/>
<path d="M19.1813 5.57039L17.4736 6.44049L9.22685 10.641C9.19896 10.4283 9.18493 10.214 9.18484 9.99948C9.18597 9.1436 9.41068 8.30287 9.83671 7.56055C10.2627 6.81824 10.8753 6.2001 11.6137 5.76738C12.3522 5.33465 13.1908 5.10235 14.0467 5.09348C14.9025 5.08461 15.7458 5.29948 16.493 5.71681L17.4706 5.21876L17.6164 5.14435C16.7209 4.49441 15.6632 4.10471 14.5601 4.01832C13.457 3.93193 12.3515 4.15221 11.3658 4.65482C10.3801 5.15744 9.5525 5.9228 8.97456 6.86633C8.39662 7.80986 8.09081 8.89482 8.09092 10.0013C8.09092 10.1541 8.09672 10.3063 8.10832 10.4579C8.12457 10.6726 8.07695 10.8874 7.97146 11.0751C7.86597 11.2628 7.70731 11.4151 7.51546 11.5128L7 11.7757V13.0016L8.51757 12.2281L9.00902 11.9773L9.49327 11.7307L18.187 7.30098L19.1639 6.80353L21.1832 5.77442V4.54908L19.1813 5.57039Z" fill="white"/>
<path d="M21.1832 7.00104L9.98713 12.7017L9.01022 13.2003L7 14.2246V15.4494L8.99642 14.4323L10.7042 13.5622L18.9593 9.3557C18.9872 9.56979 19.0013 9.78546 19.0013 10.0014C19.0008 10.8582 18.7762 11.7001 18.3497 12.4433C17.9233 13.1865 17.3098 13.8053 16.5703 14.2381C15.8308 14.671 14.991 14.9029 14.1342 14.9109C13.2773 14.9188 12.4333 14.7025 11.6859 14.2834L11.6259 14.3152L10.5662 14.8553C11.4614 15.5053 12.519 15.8951 13.6219 15.9817C14.7248 16.0683 15.8302 15.8483 16.8159 15.346C17.8016 14.8437 18.6293 14.0787 19.2075 13.1356C19.7857 12.1924 20.0919 11.1077 20.0922 10.0014C20.0922 9.84715 20.0862 9.69293 20.0748 9.54052C20.0586 9.32588 20.1062 9.11124 20.2116 8.92356C20.3169 8.73587 20.4754 8.5835 20.6671 8.4856L21.1832 8.22277V7.00104Z" fill="white"/>
</svg>
