<?xml version="1.0" encoding="utf-8"?>
<!DOCTYPE svg PUBLIC "-//W3C//DTD SVG 1.1 Basic//EN" "http://www.w3.org/Graphics/SVG/1.1/DTD/svg11-basic.dtd">
<svg version="1.1" baseProfile="basic" id="Layer_1" xmlns:svg="http://www.w3.org/2000/svg" xmlns="http://www.w3.org/2000/svg" xmlns:xlink="http://www.w3.org/1999/xlink" x="0px" y="0px"
	width="612px" height="792px" viewBox="0 0 612 792" enable-background="new 0 0 612 792" xml:space="preserve">
<path opacity="0.85" fill="#233028" d="M339.5,785c50.5-13.1,76-27.2,76-27.2C588.4,662.7,604.1,643,609.7,618
	c0.4-1.9,10-47.2-14.9-70.6c-14.4-13.5-34.4-14.1-59.7-14.9c-29.6-0.9-51.6,4.7-74.7,10.9c-19.7,5.2-48.5,13.1-81.5,32.6
	c-23.3,13.8-38.2,22.6-50.2,40.7c-8.7,13.1-10.2,22.4-17.7,66.5c-13.7,80.8-16.8,97.3-6.8,104.5C308.2,790.7,313.9,791.7,339.5,785z
	"/>
</svg>
