<?xml version="1.0" encoding="utf-8"?>
<!-- Generator: Adobe Illustrator 18.1.1, SVG Export Plug-In . SVG Version: 6.00 Build 0)  -->
<svg version="1.1" id="Layer_1" xmlns="http://www.w3.org/2000/svg" xmlns:xlink="http://www.w3.org/1999/xlink" x="0px" y="0px"
	width="18.5px" height="30.3px" viewBox="-470 265.7 18.5 30.3" enable-background="new -470 265.7 18.5 30.3" xml:space="preserve">
<path fill="#0BA24A" stroke="#000000" stroke-miterlimit="10" d="M-460.8,266.4c-4.8,0-8.7,3.6-8.7,8.1c0,1,0.3,2.3,0.7,3.1
	l8.1,17.4l8.1-17.5c0.4-0.8,0.6-2.1,0.6-3C-452,270-455.9,266.4-460.8,266.4z"/>
<path d="M-460.6,280.1c2.8,0,5.1-2.3,5.1-5.1c0-2.8-2.3-5.1-5.1-5.1c-2.8,0-5.1,2.3-5.1,5.1C-465.7,277.8-463.4,280.1-460.6,280.1z"
	/>
<circle fill="#FFFFFF" cx="-460.6" cy="275" r="3.7"/>
</svg>
