<?xml version="1.0" encoding="utf-8"?>
<!-- Generator: Adobe Illustrator 18.1.1, SVG Export Plug-In . SVG Version: 6.00 Build 0)  -->
<svg version="1.1" id="Layer_1" xmlns="http://www.w3.org/2000/svg" xmlns:xlink="http://www.w3.org/1999/xlink" x="0px" y="0px"
	width="18.5px" height="30.3px" viewBox="-470 265.7 18.5 30.3" enable-background="new -470 265.7 18.5 30.3" xml:space="preserve">
<path fill="#7F2A90" d="M-460.8,265.7c-5.1,0-9.2,3.9-9.2,8.6c0,1,0.3,2.4,0.7,3.3l8.5,18.4l8.6-18.5c0.4-0.8,0.7-2.2,0.7-3.2
	C-451.5,269.6-455.7,265.7-460.8,265.7z"/>
<path fill="#7F2A90" d="M-461,281.1c3.6,0,6.6-3,6.6-6.6c0-3.6-3-6.6-6.6-6.6s-6.6,3-6.6,6.6C-467.6,278.1-464.6,281.1-461,281.1z"
	/>
<ellipse fill="#FFFFFF" cx="-460.9" cy="274.6" rx="4.4" ry="4.4"/>
</svg>
