<?xml version="1.0" encoding="utf-8"?>
<!-- Generator: Adobe Illustrator 18.1.1, SVG Export Plug-In . SVG Version: 6.00 Build 0)  -->
<svg version="1.1" id="Layer_1" xmlns="http://www.w3.org/2000/svg" xmlns:xlink="http://www.w3.org/1999/xlink" x="0px" y="0px"
	width="18.5px" height="30.3px" viewBox="0 0 18.5 30.3" enable-background="new 0 0 18.5 30.3" xml:space="preserve">
<path fill-rule="evenodd" clip-rule="evenodd" fill="#FFFFFF" stroke="#EC2327" stroke-miterlimit="10" d="M9.2,0.7
	c-4.8,0-8.7,3.6-8.7,8.1c0,1,0.3,2.3,0.7,3.1l8.1,17.4l8.1-17.5c0.4-0.8,0.6-2.1,0.6-3C18,4.3,14.1,0.7,9.2,0.7z"/>
<path fill-rule="evenodd" clip-rule="evenodd" fill="#ED1F24" d="M9.4,14.4c2.8,0,5.1-2.3,5.1-5.1c0-2.8-2.3-5.1-5.1-5.1
	c-2.8,0-5.1,2.3-5.1,5.1C4.3,12.1,6.6,14.4,9.4,14.4z"/>
<circle fill-rule="evenodd" clip-rule="evenodd" fill="#FFFFFF" cx="9.4" cy="9.3" r="3.7"/>
</svg>
