<?xml version="1.0" encoding="utf-8"?>
<!DOCTYPE svg PUBLIC "-//W3C//DTD SVG 1.1//EN" "http://www.w3.org/Graphics/SVG/1.1/DTD/svg11.dtd">
<svg version="1.1" id="Layer_1" xmlns="http://www.w3.org/2000/svg" xmlns:xlink="http://www.w3.org/1999/xlink" x="0px" y="0px"
	 width="458.556px" height="234.702px" viewBox="0 0 458.556 234.702" enable-background="new 0 0 458.556 234.702"
	 xml:space="preserve">
<g>
	<g>
		<path fill="#E7672B" d="M197.861,89.108c-6.693-0.8-7.783-8.201-7.783-8.201l-1.767-0.581l-2.427-8.879
			c0.514-5.82-2.006-3.592-2.006-3.592c-1.22,0.846-4.983,4.097-4.983,4.097c-4.323,1.83-7.617-3.717-7.617-3.717
			c-2.873-4.522-0.517-14.394-0.517-14.394l-1.464,3.2c-4.967,2.991-6.298-1.94-6.298-1.94c-3.246-6.835,0.435-11.771,0.435-11.771
			c1.757-2.583-2.192-1.596-2.192-1.596c-2.812,0.49-4.295-5.771-4.295-5.771c-1.775-3.723-5.24-12.647-5.24-12.647
			c-3.202-3.859-9.232-6.112-9.232-6.112c-4.097-1.459,0.167-4.046,0.167-4.046c2.926-2.136,4.564,1.188,4.564,1.188l2.846,3.598
			c2.276,3.286,9.143,1.27,9.143,1.27c13.482-1.674,22.866,2.619,22.866,2.619c5.996,2.428,3.344,7.41,3.344,7.41
			c4.331-2.947,8.446-2.597,8.446-2.597c10.512-2.509,15.571,3.61,15.571,3.61c4.275,3.723-1.572,8-1.572,8
			c-4.466,2.543,0.443,3.064,0.443,3.064c4.839-0.234,12.438,2.554,12.438,2.554c6.266,2.116,5.16,6.696,5.16,6.696
			c7.334,1.98,9.063,7.001,9.063,7.001c1.924,5.06-6.238,6.233-6.238,6.233c-6.387,0.635-0.868,4.443-0.868,4.443
			c4.042,3.857,2.202,7.906,2.202,7.906c-0.77,3.91,1.281,6.214,1.281,6.214c4.146,7.591,0.258,12.487,0.258,12.487
			s-4.694,2.673-12.498-3.307c0,0-4.018-2.926-6.064-2.078c0,0-2.615,1.652-5.127-1.497c0,0-2.84-4.704-3.796-1.946
			C204.102,86.027,201.533,89.541,197.861,89.108z"/>
		<path fill="#FFFFFF" d="M226.249,89.104c0,0-17.245-22.709-24.776-29.002c0,0,2.203,12.168-0.625,22.303
			c0,0,0.815-21.146-7.865-30.104c0,0-4.575-4.346-7.77-6.164c0,0,2.407,7.952-2.601,19.648c0,0,3.577-16.094-0.886-22.08
			c0,0-6.128-5.988-8.858-6.955c0,0,2.449,6.657-2.05,13.641c0,0,3.708-12.537-2.235-16.257c0,0-5.743-4.788-7.47-6.646
			c0,0-4.281-2.613-3.664-4.705l4.851,2.927c0,0,5.188,3.364,10.847,2.194l9.476-2.552c0,0-3.816,4.538-13.439,4.647
			c0,0,6.348,3.809,12.917,9.704c0,0,14.258,0.724,19.906-3.595c0,0-8.358,5.391-17.457,5.986c0,0,11.524,8.282,14.025,12.545
			c2.504,4.26,0,0,0,0s12.527,4.24,23.619,0.933c0,0-6.147,3.651-20.303,2.396C201.89,57.969,220.809,73.252,226.249,89.104"/>
	</g>
	<g>
		<path fill="#F5BE2F" d="M154.462,47.088c-4.743,4.102-11.546-0.037-11.546-0.037l-1.557,0.841l-8.838-4.188
			c-4.516-4.207-4.205-0.988-4.205-0.988c-0.041,1.399,0.362,6.153,0.362,6.153c-1.121,4.199-7.732,2.813-7.732,2.813
			c-5.5-1.004-12.247-9.158-12.247-9.158l1.76,3.13c-0.547,5.409-5.448,3.071-5.448,3.071c-7.643-2.27-9.495-8.078-9.495-8.078
			c-1.069-2.924-2.66,0.459-2.66,0.459c-1.308,2.269-7.399-0.84-7.399-0.84c-4.17-1.232-13.685-4.737-13.685-4.737
			c-5.152-0.332-10.695,2.349-10.695,2.349c-3.709,1.872-3.253-2.789-3.253-2.789c0.009-3.435,3.769-2.373,3.769-2.373l4.716,0.414
			c4.112,0.594,6.626-5.488,6.626-5.488c6.831-10.43,16.109-14.084,16.109-14.084c5.669-2.54,8.185,2.588,8.185,2.588
			c0.199-4.945,2.991-7.557,2.991-7.557c4.328-8.926,12.491-8.386,12.491-8.386c5.693-0.496,5.674,6.374,5.674,6.374
			c-0.616,4.771,2.81,1.719,2.81,1.719c2.756-3.502,9.7-6.914,9.7-6.914c5.578-2.936,8.698,0.859,8.698,0.859
			c6.114-3.767,11.33-1.645,11.33-1.645c5.367,2.012,1.366,8.434,1.366,8.434c-3.367,4.838,3.153,3.538,3.153,3.538
			c5.663-0.245,7.897,3.7,7.897,3.7c2.777,3.113,5.938,3.221,5.938,3.221c8.821,2.148,10.512,8.07,10.512,8.07
			s-0.652,5.017-10.365,6.461c0,0-4.873,0.845-5.417,2.82c0,0-0.226,2.901-4.368,2.559c0,0-5.629-1.146-3.928,1.338
			C155.713,40.736,157.06,44.836,154.462,47.088z"/>
		<path fill="#FFFFFF" d="M171.768,27.453c0,0-29.346-3.078-39.156-2.031c0,0,11.433,6.518,18.114,15.172
			c0,0-17.038-14.541-29.753-14.455c0,0-6.395,0.291-9.849,1.301c0,0,8.06,3.588,14.705,14.782c0,0-11.165-13.106-18.843-13.978
			c0,0-8.704,0.279-11.172,1.527c0,0,7.014,2.708,10.062,10.434c0,0-8.137-10.85-14.842-9.197c0,0-7.472,0.808-10.064,0.774
			c0,0-4.777,1.235-6.135-0.573l5.385-1.424c0,0,5.95-1.366,8.431-6.049l3.663-8.239c0,0,1.434,5.637-4.34,12.364
			c0,0,7.025-1.875,15.917-2.518c0,0,9.295-9.385,9.156-16.148c0,0-0.627,9.35-5.678,16.033c0,0,13.893-2.496,18.953-1.41
			c5.057,1.084,0,0,0,0s11.15-5.862,15.167-15.721c0,0-0.718,6.665-10.388,15.627C131.1,23.725,155.304,20.741,171.768,27.453"/>
	</g>
	<g>
		<path fill="#9D2272" d="M92.7,46.313c2.333,5.549-4.735,9.596-4.735,9.596l0.242,1.623l-7.953,5.729
			c-6.21,2.119-2.735,3.116-2.735,3.116c1.438,0.577,6.543,2.097,6.543,2.097c3.913,2.57-0.214,7.531-0.214,7.531
			c-3.287,4.186-14.507,6.625-14.507,6.625l3.973-0.246c5.401,2.566,0.976,5.733,0.976,5.733
			c-5.469,5.481-12.263,4.758-12.263,4.758c-3.475-0.251-0.601,2.394-0.601,2.394c1.826,1.97-3.887,5.83-3.887,5.83
			c-2.977,2.992-10.491,9.545-10.491,9.545c-2.44,4.162-1.909,9.822-1.909,9.822c0.439,3.816-4.219,1.621-4.219,1.621
			c-3.57-1.348-0.937-4.062-0.937-4.062l2.347-3.768c2.291-3.189-3.009-7.653-3.009-7.653c-8.069-9.753-8.097-18.9-8.097-18.9
			c-0.333-5.709,6.02-5.806,6.02-5.806c-5.062-2.094-6.642-5.437-6.642-5.437c-7.526-7.082-3.642-13.663-3.642-13.663
			c1.799-4.935,8.937-2.241,8.937-2.241c4.708,2.368,2.932-1.67,2.932-1.67c-2.522-3.66-3.249-10.771-3.249-10.771
			c-0.784-5.783,4.432-6.904,4.432-6.904c-1.428-6.559,2.899-10.074,2.899-10.074c4.274-3.684,9.326,2.148,9.326,2.148
			c3.66,4.691,4.96-1.242,4.96-1.242c2.047-4.812,7.058-5.135,7.058-5.135c4.373-1.096,5.767-3.689,5.767-3.689
			c5.82-6.502,12.67-5.602,12.67-5.602s4.95,2.493,2.504,11.143c0,0-1.105,4.387,0.728,5.611c0,0,2.926,1.318,0.888,4.638
			c0,0-3.484,4.237-0.211,3.79C86.6,42.799,91.411,43.272,92.7,46.313z"/>
		<path fill="#FFFFFF" d="M79.314,24.254c0,0-15.136,23.23-18.035,31.805c0,0,11.429-6.976,23.143-9.167
			c0,0-22.046,8.517-27.133,19.14c0,0-2.294,5.434-2.649,8.701c0,0,7.009-5.309,21.352-6.479c0,0-18.171,4.186-22.201,10.24
			c0,0-3.246,7.357-2.955,9.896c0,0,5.668-4.785,14.944-4.309c0,0-14.595,2.539-15.6,8.771c0,0-2.2,6.532-3.29,8.679
			c0,0-0.657,4.458-3.09,4.883l0.707-5.038c0,0,1.004-5.484-2.86-9.376l-7.08-6.258c0,0,6.444,1.002,11.095,8.432
			c0,0,0.906-6.579,3.852-14.236c0,0-5.979-11.393-13.069-13.914c0,0,9.467,4.166,14.368,10.977c0,0,3.053-12.539,6.236-16.328
			c3.186-3.789,0,0,0,0s-1.559-11.567-10.174-18.753c0,0,6.638,3.194,12.022,14.737C58.897,56.656,65.64,35.346,79.314,24.254"/>
	</g>
	<g>
		<path fill="#138090" d="M56.452,102.025c5.463,4.127,1.13,10.914,1.13,10.914l1.178,1.396l-4.178,8.713
			c-4.645,4.625-0.769,4.058-0.769,4.058c1.701-0.085,7.429-0.868,7.429-0.868c5.212,0.695,4.204,7.058,4.204,7.058
			c-0.661,5.284-9.865,12.357-9.865,12.357l3.617-1.935c6.622,0.06,4.283,4.885,4.283,4.885c-1.973,7.421-8.836,9.668-8.836,9.668
			c-3.437,1.26,0.833,2.472,0.833,2.472c2.883,1.037-0.271,7.064-0.271,7.064c-1.071,4.045-4.35,13.335-4.35,13.335
			c0.121,4.898,3.938,9.906,3.938,9.906c2.654,3.339-3.048,3.31-3.048,3.31c-4.171,0.286-3.266-3.358-3.266-3.358l0.02-4.49
			c0.301-3.935-7.334-5.79-7.334-5.79c-13.351-5.554-18.733-14.009-18.733-14.009c-3.658-5.139,2.303-7.957,2.303-7.957
			c-6.018,0.236-9.47-2.18-9.47-2.18C3.987,153.25,3.817,145.498,3.817,145.498c-1.185-5.338,7.154-5.91,7.154-5.91
			c5.847,0.168,1.801-2.803,1.801-2.803c-4.534-2.307-9.385-8.573-9.385-8.573c-4.128-5.015,0.155-8.288,0.155-8.288
			c-5.189-5.455-3.147-10.564-3.147-10.564c1.892-5.244,10.096-2.018,10.096-2.018c6.211,2.77,3.971-3.279,3.971-3.279
			c-0.878-5.33,3.682-7.782,3.682-7.782c3.5-2.888,3.302-5.884,3.302-5.884c1.711-8.518,8.725-10.623,8.725-10.623
			s6.15,0.18,8.894,9.236c0,0,1.526,4.53,3.977,4.875c0,0,3.545-0.032,3.552,3.91c0,0-0.818,5.418,2.024,3.596
			C48.617,101.391,53.454,99.764,56.452,102.025z"/>
		<path fill="#FFFFFF" d="M30.861,87.363c0,0-0.746,27.99,1.528,37.167c0,0,6.747-11.359,16.562-18.417
			c0,0-15.904,17.346-14.506,29.355c0,0,1.008,6.014,2.582,9.188c0,0,3.534-7.919,16.44-15.16c0,0-14.767,11.673-15.042,19.008
			c0,0,1.231,8.197,2.994,10.423c0,0,2.568-6.862,11.639-10.404c0,0-12.341,8.62-9.648,14.813c0,0,1.738,6.988,1.961,9.441
			c0,0,1.99,4.409-0.068,5.845l-2.277-4.965c0,0-2.263-5.503-8.2-7.443l-10.372-2.755c0,0,6.695-1.84,15.45,3.037
			c0,0-2.993-6.477-4.684-14.823c0,0-12.333-7.975-20.528-7.266c0,0,11.411-0.206,20.037,3.99c0,0-4.447-12.914-3.646-17.787
			c0.799-4.871,0,0,0,0s-8.247-10.032-20.62-12.98c0,0,8.162,0.107,20.018,8.473C30.48,126.104,24.397,103.492,30.861,87.363"/>
	</g>
	<g>
		<path fill="#73AA42" d="M60.862,163.139c6.663,0.14,8.406,7.309,8.406,7.309l1.79,0.395l3.197,8.484
			c0.019,5.761,2.3,3.335,2.3,3.335c1.118-0.947,4.529-4.495,4.529-4.495c4.094-2.21,7.839,2.919,7.839,2.919
			c3.231,4.166,1.809,14.077,1.809,14.077l1.151-3.281c4.618-3.408,6.374,1.303,6.374,1.303c3.816,6.402,0.644,11.599,0.644,11.599
			c-1.498,2.703,2.3,1.358,2.3,1.358c2.721-0.753,4.75,5.251,4.75,5.251c2.083,3.487,6.305,11.919,6.305,11.919
			c3.506,3.48,9.641,5.114,9.641,5.114c4.169,1.039,0.206,3.985,0.206,3.985c-2.687,2.381-4.603-0.729-4.603-0.729l-3.125-3.259
			c-2.539-3.004-9.114-0.372-9.114-0.372c-13.113,2.93-22.736-0.386-22.736-0.386c-6.119-1.812-3.966-6.954-3.966-6.954
			c-3.997,3.302-8.07,3.354-8.07,3.354c-10.118,3.468-15.652-2.058-15.652-2.058c-4.547-3.244,0.821-8.003,0.821-8.003
			c4.158-2.921-0.713-2.965-0.713-2.965c-4.748,0.692-12.475-1.318-12.475-1.318c-6.359-1.479-5.685-6.077-5.685-6.077
			c-7.397-1.248-9.553-6.007-9.553-6.007c-2.357-4.784,5.567-6.715,5.567-6.715c6.231-1.235,0.457-4.447,0.457-4.447
			c-4.329-3.398-2.89-7.547-2.89-7.547c0.404-3.914-1.825-5.98-1.825-5.98c-4.77-7.055-1.389-12.229-1.389-12.229
			s4.38-3.075,12.6,2.048c0,0,4.221,2.488,6.157,1.458c0,0,2.425-1.868,5.187,0.983c0,0,3.214,4.344,3.909,1.55
			C55.004,166.758,57.212,163.061,60.862,163.139z"/>
		<path fill="#FFFFFF" d="M32.93,165.85c0,0,19.033,20.647,27.017,26.106c0,0-3.272-11.735-1.414-21.958
			c0,0,1.12,20.84,10.474,28.803c0,0,4.897,3.827,8.206,5.307c0,0-3.089-7.575,0.774-19.537c0,0-2.055,16.141,2.877,21.59
			c0,0,6.577,5.294,9.353,5.983c0,0-3.017-6.302,0.779-13.586c0,0-2.515,12.659,3.672,15.741c0,0,6.09,4.151,7.953,5.813
			c0,0,4.452,2.156,4.034,4.265l-5.044-2.405c0,0-5.404-2.807-10.867-1.121l-9.091,3.411c0,0,3.342-4.819,12.8-5.846
			c0,0-6.592-3.133-13.591-8.291c0,0-14.097,0.651-19.266,5.434c0,0,7.742-6.097,16.638-7.549c0,0-12.092-7.032-14.944-10.975
			c-2.849-3.942,0,0,0,0s-12.71-2.963-23.322,1.345c0,0,5.716-4.173,19.759-4.29C59.728,194.09,39.727,180.89,32.93,165.85"/>
	</g>
	<g>
		<path fill="#72AA43" stroke="#FFFFFF" stroke-width="0.25" stroke-miterlimit="10" d="M157.929,223.067
			c0,3.063-1.063,5.747-3.189,8.052c-2.126,2.306-4.657,3.458-7.593,3.458c-1.774,0-3.228-0.646-4.358-1.939
			c-1.132-1.293-1.698-2.869-1.698-4.729c0-3.91,2.095-7.205,6.286-9.886l0.367,0.709c-1.988,1.325-3.411,2.634-4.267,3.926
			c-1.04,1.546-1.56,3.391-1.56,5.534c0,1.451,0.52,2.72,1.56,3.808c1.04,1.088,2.248,1.632,3.625,1.632
			c2.538,0,4.634-1.15,6.285-3.453c1.468-2.081,2.203-4.477,2.203-7.189c0-4.477-1.484-7.125-4.451-7.945
			c-0.795,0.473-1.942,0.709-3.441,0.709c-0.979,0-1.866-0.189-2.661-0.567c-0.062-0.031-0.146-0.102-0.252-0.213
			c-0.107-0.11-0.161-0.229-0.161-0.354c0-0.757,1.085-1.136,3.257-1.136c0.795,0,1.881,0.301,3.257,0.899
			c1.499-0.411,2.646-1.393,3.441-2.944c0.673-1.297,1.01-2.832,1.01-4.604c0-1.614-0.49-2.88-1.468-3.798
			c-0.979-0.918-2.248-1.377-3.808-1.377c-1.163,0-2.156,0.111-2.982,0.332c-1.622,1.516-3.12,5.21-4.496,11.083
			c-1.835,7.8-3.105,12.584-3.808,14.353c-1.927,4.768-4.496,7.152-7.708,7.152c-1.163,0-2.141-0.324-2.936-0.97
			c-0.796-0.646-1.193-1.553-1.193-2.72c0-0.504,0.107-1.119,0.321-1.845l0.917,0.284c-0.184,0.693-0.275,1.245-0.275,1.655
			c0,0.82,0.321,1.482,0.963,1.986c0.551,0.441,1.239,0.662,2.065,0.662c1.101,0,2.019-0.3,2.752-0.898
			c1.346-1.072,2.554-3.768,3.625-8.088c1.009-4.036,2.003-8.072,2.982-12.108c1.407-4.698,3.181-8.024,5.322-9.98l-0.092-0.188
			c-6.179,2.379-11.027,6.842-14.544,13.385l-0.78-0.424c2.171-4.086,4.955-7.449,8.35-10.09c3.854-2.955,7.845-4.433,11.975-4.433
			c1.988,0,3.625,0.521,4.909,1.563c1.407,1.137,2.111,2.699,2.111,4.689c0,1.862-0.536,3.473-1.606,4.831
			c-1.071,1.357-2.478,2.289-4.221,2.794v0.095c1.804,0.475,3.25,1.492,4.335,3.056
			C157.386,219.397,157.929,221.142,157.929,223.067z M150.267,214.617c-0.826-0.315-1.606-0.474-2.34-0.474
			c-0.948,0-1.697,0.158-2.248,0.474c0.734,0.315,1.483,0.473,2.248,0.473C148.57,215.09,149.35,214.933,150.267,214.617z"/>
		<path fill="#72AA43" stroke="#FFFFFF" stroke-width="0.25" stroke-miterlimit="10" d="M177.244,226.252
			c-0.704,1.199-1.392,2.397-2.064,3.595c-0.856,1.419-1.628,2.53-2.317,3.335c-0.688,0.804-1.384,1.206-2.087,1.206
			c-1.101,0-1.652-0.725-1.652-2.176c0-0.662,0.168-1.514,0.505-2.554c0.305-0.788,0.611-1.593,0.917-2.413l-0.229-0.142
			c-0.673,1.262-1.774,2.713-3.303,4.352c-1.805,1.955-3.196,2.933-4.175,2.933c-1.224,0-1.835-0.693-1.835-2.081
			c0-0.409,0.122-0.962,0.367-1.655c1.468-4.288,2.981-8.608,4.542-12.96c0.03-0.189,0.092-0.457,0.184-0.804
			c-0.031-0.189-0.092-0.331-0.184-0.426s-0.184-0.143-0.275-0.143c-0.642,0-1.759,1.294-3.349,3.879
			c-0.765,1.324-1.53,2.648-2.294,3.973l-0.504-0.331c0.707-1.261,1.476-2.569,2.307-3.926c0.461-0.945,1.045-1.828,1.753-2.648
			c0.922-1.104,1.768-1.655,2.537-1.655c0.492,0,0.884,0.236,1.176,0.709c0.292,0.474,0.439,0.978,0.439,1.514
			c0,0.567-0.262,1.561-0.785,2.979l-3.63,10.498c-0.118,0.348-0.177,0.537-0.177,0.568c-0.089,0.348-0.133,0.616-0.133,0.806
			c0,0.475,0.229,0.711,0.688,0.711c0.397,0,1.116-0.536,2.156-1.608c2.11-2.176,3.823-4.588,5.139-7.236
			c0.795-1.576,1.911-4.383,3.349-8.419h2.064l-5.276,15.371c-0.306,0.884-0.459,1.419-0.459,1.608v0.189
			c0.03,0.063,0.084,0.15,0.161,0.26c0.076,0.111,0.161,0.166,0.252,0.166c0.642,0,1.773-1.293,3.395-3.879
			c0.734-1.292,1.483-2.602,2.248-3.926L177.244,226.252z"/>
		<path fill="#72AA43" stroke="#FFFFFF" stroke-width="0.25" stroke-miterlimit="10" d="M191.282,219.488
			c0,2.429-0.963,3.643-2.89,3.643c-1.255,0-2.218-0.615-2.891-1.845l0.551-0.331c0.367,1.04,1.116,1.561,2.248,1.561
			c1.529,0,2.294-0.898,2.294-2.696c0-1.071-0.398-1.923-1.193-2.554c-0.796-0.63-1.729-0.946-2.799-0.946
			c-1.04,0-1.942,0.253-2.707,0.757c-0.918,0.6-1.376,1.403-1.376,2.412c0,0.852,0.581,1.814,1.743,2.886
			c2.049,1.924,3.15,2.964,3.303,3.121c1.162,1.389,1.744,2.854,1.744,4.399c0,1.45-0.765,2.602-2.294,3.452
			c-1.285,0.693-2.692,1.041-4.221,1.041c-1.591,0-2.906-0.331-3.946-0.993c-1.224-0.757-1.835-1.907-1.835-3.453
			c0-1.166,0.429-2.104,1.285-2.814c0.856-0.709,1.865-1.063,3.028-1.063c1.131,0,2.133,0.395,3.005,1.182
			c0.872,0.789,1.308,1.767,1.308,2.933c0,0.537-0.123,1.12-0.367,1.75l-0.504-0.188c0.184-0.441,0.275-0.867,0.275-1.277
			c0-1.071-0.342-1.955-1.026-2.648c-0.684-0.693-1.557-1.041-2.62-1.041c-0.942,0-1.725,0.292-2.348,0.875
			c-0.623,0.584-0.934,1.364-0.934,2.342c0,1.229,0.501,2.176,1.507,2.838c0.852,0.599,1.902,0.898,3.15,0.898
			c1.279,0,2.405-0.3,3.379-0.898c1.157-0.726,1.735-1.719,1.735-2.98c0-1.104-1.14-2.711-3.418-4.824
			c-2.279-2.112-3.418-3.847-3.418-5.203c0-1.354,0.626-2.428,1.881-3.216c1.07-0.662,2.294-0.993,3.67-0.993
			c1.254,0,2.324,0.315,3.211,0.946C190.792,217.282,191.282,218.259,191.282,219.488z"/>
		<path fill="#72AA43" stroke="#FFFFFF" stroke-width="0.25" stroke-miterlimit="10" d="M200.549,226.252
			c-0.856,1.482-1.729,2.98-2.615,4.494c-1.591,2.428-2.86,3.642-3.808,3.642c-0.521,0-0.941-0.223-1.262-0.665
			c-0.321-0.443-0.482-0.951-0.482-1.521c0-0.793,0.33-2.013,0.991-3.661l4.021-9.256c0.512-1.13,0.769-1.913,0.769-2.353
			c0,0.063-0.016-0.031-0.046-0.282l-0.138-0.235l-0.275-0.095c-0.642,0-1.728,1.277-3.257,3.831l-2.386,3.974l-0.504-0.284
			c0.887-1.514,1.758-3.026,2.615-4.54c1.621-2.46,2.875-3.689,3.762-3.689c0.489,0,0.887,0.236,1.193,0.709
			c0.306,0.474,0.459,0.993,0.459,1.562c0,0.82-0.321,1.971-0.963,3.452l-4.038,9.413c-0.49,1.135-0.734,1.923-0.734,2.364
			c0,0.253,0.138,0.458,0.413,0.615h0.092c0.672,0,1.805-1.277,3.395-3.831c0.764-1.293,1.529-2.602,2.294-3.926L200.549,226.252z
			 M201.834,209.556c0,0.6-0.123,1.183-0.367,1.75c-0.306,0.727-0.704,1.088-1.193,1.088c-0.306,0-0.535-0.173-0.688-0.52
			c-0.031-0.347-0.046-0.489-0.046-0.426v-0.567c0-0.441,0.161-0.946,0.481-1.514c0.321-0.567,0.681-0.852,1.079-0.852
			c0.275,0,0.504,0.174,0.688,0.521C201.818,209.352,201.834,209.525,201.834,209.556z"/>
		<path fill="#72AA43" stroke="#FFFFFF" stroke-width="0.25" stroke-miterlimit="10" d="M218.946,226.252
			c-0.856,1.482-1.728,2.965-2.615,4.446c-1.591,2.46-2.86,3.689-3.808,3.689c-0.551,0-0.986-0.253-1.308-0.757
			s-0.481-1.056-0.481-1.655c0-0.409,0.244-1.324,0.734-2.743l3.625-10.453c0.244-0.693,0.367-1.119,0.367-1.277
			c0-0.567-0.245-0.852-0.734-0.852c-0.398,0-0.948,0.363-1.651,1.088c-2.264,2.334-4.083,4.841-5.46,7.521
			c-0.917,1.767-2.095,4.667-3.533,8.703h-2.064c1.835-5.36,3.701-10.784,5.597-16.271c0.03-0.189,0.092-0.457,0.184-0.804
			c-0.031-0.189-0.092-0.331-0.184-0.426s-0.184-0.143-0.275-0.143c-0.642,0-1.759,1.294-3.349,3.879
			c-0.765,1.324-1.53,2.648-2.294,3.973l-0.504-0.331c0.703-1.261,1.468-2.569,2.294-3.926c0.428-0.914,0.994-1.78,1.697-2.602
			c0.918-1.135,1.713-1.702,2.386-1.702c0.551,0,0.979,0.229,1.285,0.686c0.306,0.458,0.459,0.97,0.459,1.537
			c0,0.537-0.475,2.208-1.422,5.014l0.184,0.095c3.303-4.887,5.811-7.331,7.524-7.331c1.193,0,1.79,0.726,1.79,2.176
			c0,0.378-0.123,0.915-0.367,1.608c-0.856,2.68-2.248,6.653-4.175,11.919v0.095c-0.337,0.788-0.505,1.324-0.505,1.607
			c0,0.253,0.061,0.458,0.184,0.615l0.229,0.095c0.703-0.063,1.804-1.309,3.303-3.736c0.795-1.355,1.575-2.696,2.34-4.021
			L218.946,226.252z"/>
		<path fill="#72AA43" stroke="#FFFFFF" stroke-width="0.25" stroke-miterlimit="10" d="M231.195,218.069
			c0,2.176-1.076,4.336-3.226,6.48c-1.875,1.892-3.934,3.248-6.176,4.067c-0.276,1.041-0.415,2.065-0.415,3.074
			c0,1.356,0.495,2.034,1.484,2.034c1.298,0,2.643-0.898,4.033-2.696c1.113-1.419,1.949-2.933,2.504-4.54l0.695,0.283
			c-0.675,1.829-1.566,3.453-2.671,4.872c-1.475,1.829-2.965,2.743-4.47,2.743c-0.983,0-1.759-0.363-2.328-1.088
			s-0.852-1.608-0.852-2.648c0-2.68,0.901-5.755,2.707-9.224c2.02-3.878,4.176-5.817,6.469-5.817
			C230.445,215.61,231.195,216.431,231.195,218.069z M230.048,217.407c0-0.725-0.306-1.088-0.917-1.088
			c-2.324,0-4.725,3.831-7.203,11.494c1.652-0.599,3.417-2.058,5.298-4.375C229.107,221.12,230.048,219.11,230.048,217.407z"/>
		<path fill="#72AA43" stroke="#FFFFFF" stroke-width="0.25" stroke-miterlimit="10" d="M244.914,219.488
			c0,2.429-0.963,3.643-2.891,3.643c-1.254,0-2.219-0.615-2.891-1.845l0.551-0.331c0.367,1.04,1.115,1.561,2.248,1.561
			c1.529,0,2.293-0.898,2.293-2.696c0-1.071-0.396-1.923-1.191-2.554c-0.797-0.63-1.729-0.946-2.799-0.946
			c-1.041,0-1.943,0.253-2.707,0.757c-0.918,0.6-1.377,1.403-1.377,2.412c0,0.852,0.58,1.814,1.744,2.886
			c2.049,1.924,3.15,2.964,3.303,3.121c1.162,1.389,1.744,2.854,1.744,4.399c0,1.45-0.766,2.602-2.295,3.452
			c-1.285,0.693-2.691,1.041-4.221,1.041c-1.59,0-2.906-0.331-3.945-0.993c-1.225-0.757-1.836-1.907-1.836-3.453
			c0-1.166,0.43-2.104,1.285-2.814c0.855-0.709,1.865-1.063,3.027-1.063c1.133,0,2.135,0.395,3.006,1.182
			c0.871,0.789,1.309,1.767,1.309,2.933c0,0.537-0.123,1.12-0.367,1.75l-0.506-0.188c0.184-0.441,0.275-0.867,0.275-1.277
			c0-1.071-0.342-1.955-1.025-2.648s-1.557-1.041-2.621-1.041c-0.941,0-1.725,0.292-2.348,0.875
			c-0.623,0.584-0.934,1.364-0.934,2.342c0,1.229,0.502,2.176,1.508,2.838c0.852,0.599,1.902,0.898,3.15,0.898
			c1.279,0,2.404-0.3,3.379-0.898c1.156-0.726,1.736-1.719,1.736-2.98c0-1.104-1.141-2.711-3.418-4.824
			c-2.279-2.112-3.418-3.847-3.418-5.203c0-1.354,0.625-2.428,1.881-3.216c1.07-0.662,2.293-0.993,3.67-0.993
			c1.254,0,2.324,0.315,3.211,0.946C244.423,217.282,244.914,218.259,244.914,219.488z"/>
		<path fill="#72AA43" stroke="#FFFFFF" stroke-width="0.25" stroke-miterlimit="10" d="M258.585,219.488
			c0,2.429-0.963,3.643-2.891,3.643c-1.254,0-2.219-0.615-2.891-1.845l0.551-0.331c0.367,1.04,1.115,1.561,2.248,1.561
			c1.529,0,2.293-0.898,2.293-2.696c0-1.071-0.396-1.923-1.191-2.554c-0.797-0.63-1.729-0.946-2.799-0.946
			c-1.041,0-1.943,0.253-2.707,0.757c-0.918,0.6-1.377,1.403-1.377,2.412c0,0.852,0.58,1.814,1.744,2.886
			c2.049,1.924,3.15,2.964,3.303,3.121c1.162,1.389,1.744,2.854,1.744,4.399c0,1.45-0.766,2.602-2.295,3.452
			c-1.285,0.693-2.691,1.041-4.221,1.041c-1.59,0-2.906-0.331-3.945-0.993c-1.225-0.757-1.836-1.907-1.836-3.453
			c0-1.166,0.43-2.104,1.285-2.814c0.855-0.709,1.865-1.063,3.027-1.063c1.133,0,2.135,0.395,3.006,1.182
			c0.871,0.789,1.309,1.767,1.309,2.933c0,0.537-0.123,1.12-0.367,1.75l-0.506-0.188c0.184-0.441,0.275-0.867,0.275-1.277
			c0-1.071-0.342-1.955-1.025-2.648s-1.557-1.041-2.621-1.041c-0.941,0-1.725,0.292-2.348,0.875
			c-0.623,0.584-0.934,1.364-0.934,2.342c0,1.229,0.502,2.176,1.508,2.838c0.852,0.599,1.902,0.898,3.15,0.898
			c1.279,0,2.404-0.3,3.379-0.898c1.156-0.726,1.736-1.719,1.736-2.98c0-1.104-1.141-2.711-3.418-4.824
			c-2.279-2.112-3.418-3.847-3.418-5.203c0-1.354,0.625-2.428,1.881-3.216c1.07-0.662,2.293-0.993,3.67-0.993
			c1.254,0,2.324,0.315,3.211,0.946C258.095,217.282,258.585,218.259,258.585,219.488z"/>
		<path fill="#72AA43" stroke="#FFFFFF" stroke-width="0.25" stroke-miterlimit="10" d="M283.957,226.252
			c-0.857,1.482-1.729,2.98-2.615,4.494c-1.592,2.428-2.861,3.642-3.809,3.642c-0.52,0-0.939-0.223-1.262-0.665
			c-0.32-0.443-0.48-0.951-0.48-1.521c0-0.793,0.328-2.013,0.99-3.661l4.021-9.256c0.512-1.13,0.768-1.913,0.768-2.353
			c0,0.063-0.016-0.031-0.045-0.282l-0.139-0.235l-0.275-0.095c-0.643,0-1.729,1.277-3.256,3.831l-2.387,3.974l-0.504-0.284
			c0.887-1.514,1.758-3.026,2.615-4.54c1.619-2.46,2.873-3.689,3.762-3.689c0.488,0,0.887,0.236,1.193,0.709
			c0.305,0.474,0.457,0.993,0.457,1.562c0,0.82-0.32,1.971-0.963,3.452l-4.037,9.413c-0.49,1.135-0.734,1.923-0.734,2.364
			c0,0.253,0.139,0.458,0.414,0.615h0.092c0.672,0,1.803-1.277,3.395-3.831c0.764-1.293,1.529-2.602,2.293-3.926L283.957,226.252z
			 M285.24,209.556c0,0.6-0.121,1.183-0.365,1.75c-0.307,0.727-0.705,1.088-1.193,1.088c-0.307,0-0.535-0.173-0.689-0.52
			c-0.029-0.347-0.045-0.489-0.045-0.426v-0.567c0-0.441,0.16-0.946,0.482-1.514c0.32-0.567,0.68-0.852,1.078-0.852
			c0.275,0,0.504,0.174,0.688,0.521C285.224,209.352,285.24,209.525,285.24,209.556z"/>
		<path fill="#72AA43" stroke="#FFFFFF" stroke-width="0.25" stroke-miterlimit="10" d="M302.353,226.252
			c-0.857,1.482-1.729,2.965-2.615,4.446c-1.592,2.46-2.861,3.689-3.809,3.689c-0.551,0-0.986-0.253-1.307-0.757
			c-0.322-0.504-0.482-1.056-0.482-1.655c0-0.409,0.244-1.324,0.734-2.743l3.625-10.453c0.244-0.693,0.367-1.119,0.367-1.277
			c0-0.567-0.246-0.852-0.734-0.852c-0.398,0-0.949,0.363-1.652,1.088c-2.264,2.334-4.082,4.841-5.459,7.521
			c-0.918,1.767-2.096,4.667-3.533,8.703h-2.064c1.836-5.36,3.701-10.784,5.598-16.271c0.029-0.189,0.092-0.457,0.184-0.804
			c-0.031-0.189-0.092-0.331-0.184-0.426s-0.184-0.143-0.275-0.143c-0.643,0-1.76,1.294-3.35,3.879
			c-0.766,1.324-1.529,2.648-2.293,3.973l-0.506-0.331c0.703-1.261,1.469-2.569,2.295-3.926c0.428-0.914,0.992-1.78,1.697-2.602
			c0.918-1.135,1.713-1.702,2.385-1.702c0.551,0,0.979,0.229,1.285,0.686c0.305,0.458,0.459,0.97,0.459,1.537
			c0,0.537-0.475,2.208-1.422,5.014l0.184,0.095c3.303-4.887,5.811-7.331,7.523-7.331c1.193,0,1.789,0.726,1.789,2.176
			c0,0.378-0.123,0.915-0.367,1.608c-0.855,2.68-2.248,6.653-4.174,11.919v0.095c-0.338,0.788-0.506,1.324-0.506,1.607
			c0,0.253,0.061,0.458,0.184,0.615l0.23,0.095c0.703-0.063,1.805-1.309,3.303-3.736c0.795-1.355,1.574-2.696,2.34-4.021
			L302.353,226.252z"/>
		<path fill="#72AA43" stroke="#FFFFFF" stroke-width="0.25" stroke-miterlimit="10" d="M330.796,216.131l-0.229,0.709h-4.424
			l-4.787,13.91c-0.498,1.418-0.746,2.252-0.746,2.503v0.048c0.123,0.283,0.275,0.425,0.459,0.425c0.674,0,1.805-1.277,3.396-3.831
			c0.732-1.293,1.482-2.602,2.248-3.926l0.549,0.283c-0.855,1.482-1.727,2.965-2.615,4.446c-1.621,2.46-2.889,3.689-3.807,3.689
			c-0.49,0-0.91-0.221-1.262-0.662s-0.527-0.914-0.527-1.419v-0.095l0.045-0.095c0-0.473,0.244-1.435,0.734-2.885l4.221-12.393
			h-4.174l0.229-0.709h4.209l3.256-10.064l2.031-0.011l-3.258,10.075H330.796z"/>
		<path fill="#72AA43" stroke="#FFFFFF" stroke-width="0.25" stroke-miterlimit="10" d="M344.285,226.252
			c-0.734,1.23-1.453,2.477-2.156,3.737c-0.092,0.063-0.643,0.883-1.652,2.459c-0.855,1.293-1.713,1.939-2.568,1.939
			c-1.162,0-1.744-0.802-1.744-2.407c0-0.377,0.256-1.289,0.766-2.736l2.238-6.721c1.125-3.376,1.689-5.032,1.689-4.97
			c0-0.602-0.246-0.903-0.734-0.903c-0.398,0-1.301,0.757-2.707,2.271c-2.143,2.303-3.748,4.62-4.818,6.953
			c-0.49,1.01-1.498,3.705-3.027,8.088l-1.928,0.005l8.57-24.347l-0.184-0.015l-6.848,11.722l-0.586-0.283l7.432-12.718
			c0.703-1.229,1.346-2.711,1.928-4.446c0.488-1.544,0.963-3.105,1.422-4.682h0.963l-7.203,23.648h0.139
			c0.244-0.314,0.596-0.788,1.055-1.419c0.029-0.031,0.105-0.142,0.229-0.331c2.754-3.657,4.818-5.486,6.193-5.486
			c1.316,0,1.973,0.726,1.973,2.176c0,0.536-0.199,1.324-0.596,2.364c-0.307,0.789-0.611,1.577-0.918,2.365l-2.799,8.23
			c-0.488,1.45-0.732,2.27-0.732,2.459c0,0.348,0.152,0.521,0.457,0.521c0.643,0,1.76-1.261,3.35-3.784
			c0.766-1.324,1.529-2.648,2.295-3.973L344.285,226.252z"/>
		<path fill="#72AA43" stroke="#FFFFFF" stroke-width="0.25" stroke-miterlimit="10" d="M356.488,218.069
			c0,2.176-1.076,4.336-3.227,6.48c-1.875,1.892-3.934,3.248-6.176,4.067c-0.277,1.041-0.416,2.065-0.416,3.074
			c0,1.356,0.496,2.034,1.484,2.034c1.297,0,2.643-0.898,4.033-2.696c1.113-1.419,1.949-2.933,2.504-4.54l0.695,0.283
			c-0.676,1.829-1.566,3.453-2.672,4.872c-1.475,1.829-2.965,2.743-4.471,2.743c-0.982,0-1.758-0.363-2.326-1.088
			c-0.57-0.725-0.854-1.608-0.854-2.648c0-2.68,0.902-5.755,2.707-9.224c2.02-3.878,4.176-5.817,6.469-5.817
			C355.738,215.61,356.488,216.431,356.488,218.069z M355.341,217.407c0-0.725-0.307-1.088-0.918-1.088
			c-2.324,0-4.725,3.831-7.203,11.494c1.652-0.599,3.418-2.058,5.299-4.375C354.4,221.12,355.341,219.11,355.341,217.407z"/>
		<path fill="#72AA43" stroke="#FFFFFF" stroke-width="0.25" stroke-miterlimit="10" d="M400.578,200.711
			c-1.314,4.257-2.125,8.073-2.432,11.446h-0.826v-0.712c0.031-1.236-0.029-2.36-0.184-3.374c-0.305-1.773-1.039-3.263-2.201-4.467
			c-1.162-1.203-2.586-1.806-4.268-1.806c-2.385,0-4.564,0.877-6.537,2.63s-3.646,4.682-5.023,8.786
			c-1.225,3.695-1.836,7.09-1.836,10.184c0,2.875,0.475,5.18,1.422,6.916c1.225,2.212,3.135,3.316,5.736,3.316
			c0.152,0,1.023-0.221,2.615-0.662c1.803-0.473,3.639-2.065,5.504-4.777c1.469-2.112,2.646-4.383,3.533-6.811l0.873,0.331
			c-1.285,3.405-2.814,6.212-4.59,8.419c-2.416,2.964-5.031,4.446-7.844,4.446c-2.814,0-5.277-1.264-7.387-3.789
			c-1.744-2.021-2.615-5.132-2.615-9.331c0-4.736,1.514-9.268,4.541-13.594c3.305-4.705,7.174-7.058,11.607-7.058
			c3.334,0,5.828,1.451,7.479,4.352h0.322c0.213-0.977,0.656-2.522,1.33-4.635L400.578,200.711z"/>
		<path fill="#72AA43" stroke="#FFFFFF" stroke-width="0.25" stroke-miterlimit="10" d="M409.753,199.198l-9.68,32.493
			c-0.154,0.505-0.23,0.931-0.23,1.277c0,0.505,0.152,0.757,0.459,0.757c0.611,0,1.713-1.261,3.303-3.784
			c0.795-1.324,1.576-2.648,2.34-3.973l0.551,0.283c-0.855,1.482-1.713,2.965-2.568,4.446c-1.621,2.46-2.906,3.689-3.854,3.689
			c-0.551,0-0.98-0.221-1.285-0.662c-0.307-0.441-0.459-0.946-0.459-1.514c0-0.693,0.184-1.576,0.551-2.648l6.744-19.96
			l-0.129,0.005l-6.848,11.723l-0.639-0.284l7.432-12.721c0.855-1.481,1.988-4.524,3.395-9.128H409.753z"/>
		<path fill="#72AA43" stroke="#FFFFFF" stroke-width="0.25" stroke-miterlimit="10" d="M419.388,220.813
			c0,1.955-0.475,4.02-1.422,6.195c-0.918,2.019-2.064,3.784-3.441,5.298c-1.314,1.388-2.615,2.081-3.9,2.081
			c-0.061,0-0.076,0.016-0.045,0.047c-2.172-0.063-3.258-1.78-3.258-5.155c0-2.585,0.826-5.407,2.479-8.466
			c1.865-3.469,3.945-5.203,6.238-5.203C418.271,215.61,419.388,217.345,419.388,220.813z M417.736,218.117
			c0-1.198-0.521-1.798-1.566-1.798c-1.354,0-2.846,1.672-4.475,5.014c-1.322,2.743-2.113,4.99-2.375,6.74s-0.393,2.814-0.393,3.192
			c0,1.641,0.568,2.46,1.707,2.46c1.352,0,2.859-1.907,4.52-5.724c1.414-3.278,2.229-5.88,2.445-7.804
			C417.691,219.379,417.736,218.685,417.736,218.117z"/>
		<path fill="#72AA43" stroke="#FFFFFF" stroke-width="0.25" stroke-miterlimit="10" d="M437.968,226.252
			c-0.703,1.199-1.391,2.397-2.064,3.595c-0.855,1.419-1.629,2.53-2.316,3.335c-0.688,0.804-1.385,1.206-2.088,1.206
			c-1.102,0-1.65-0.725-1.65-2.176c0-0.662,0.166-1.514,0.504-2.554c0.305-0.788,0.611-1.593,0.918-2.413l-0.23-0.142
			c-0.672,1.262-1.773,2.713-3.303,4.352c-1.805,1.955-3.197,2.933-4.176,2.933c-1.223,0-1.834-0.693-1.834-2.081
			c0-0.409,0.121-0.962,0.367-1.655c1.467-4.288,2.98-8.608,4.541-12.96c0.029-0.189,0.092-0.457,0.184-0.804
			c-0.031-0.189-0.092-0.331-0.184-0.426s-0.184-0.143-0.275-0.143c-0.643,0-1.758,1.294-3.348,3.879
			c-0.766,1.324-1.531,2.648-2.295,3.973l-0.504-0.331c0.707-1.261,1.475-2.569,2.307-3.926c0.461-0.945,1.045-1.828,1.754-2.648
			c0.922-1.104,1.768-1.655,2.535-1.655c0.492,0,0.885,0.236,1.178,0.709c0.293,0.474,0.438,0.978,0.438,1.514
			c0,0.567-0.262,1.561-0.783,2.979l-3.631,10.498c-0.119,0.348-0.178,0.537-0.178,0.568c-0.088,0.348-0.133,0.616-0.133,0.806
			c0,0.475,0.229,0.711,0.688,0.711c0.398,0,1.117-0.536,2.156-1.608c2.111-2.176,3.824-4.588,5.139-7.236
			c0.795-1.576,1.912-4.383,3.35-8.419h2.064l-5.275,15.371c-0.307,0.884-0.459,1.419-0.459,1.608v0.189
			c0.029,0.063,0.084,0.15,0.16,0.26c0.076,0.111,0.16,0.166,0.252,0.166c0.643,0,1.773-1.293,3.395-3.879
			c0.734-1.292,1.484-2.602,2.248-3.926L437.968,226.252z"/>
		<path fill="#72AA43" stroke="#FFFFFF" stroke-width="0.25" stroke-miterlimit="10" d="M458.384,199.198l-9.91,30.885
			c-0.49,1.514-0.734,2.539-0.734,3.075c0,0.378,0.123,0.567,0.367,0.567c0.734,0,2.479-2.555,5.23-7.662l0.551,0.236
			c-0.797,1.482-1.576,2.964-2.34,4.446c-1.438,2.428-2.646,3.642-3.625,3.642c-1.102,0-1.65-0.819-1.65-2.46
			c0-0.757,0.305-1.986,0.916-3.688c0.428-1.104,0.857-2.207,1.285-3.312h-0.184c-3.641,6.308-6.531,9.46-8.672,9.46
			c-1.283,0-1.926-1.324-1.926-3.973c0-1.987,0.779-4.115,2.34-6.386c1.131-1.671,2.645-3.374,4.541-5.108
			c2.416-2.206,4.344-3.311,5.781-3.311c0.52,0,0.934,0.189,1.238,0.567l5.873-16.979H458.384z M450.953,216.981
			c0-0.22-0.217-0.44-0.645-0.662h-0.139c-0.492,0-1.336,0.505-2.533,1.514c-1.627,1.388-3.455,3.706-5.48,6.953
			c-2.242,3.563-3.361,6.181-3.361,7.852c0,0.726,0.275,1.088,0.828,1.088s1.32-0.441,2.303-1.324
			c2.947-2.743,5.604-6.89,7.967-12.439C450.599,218.322,450.953,217.329,450.953,216.981z"/>
	</g>
	<g>
		<path fill="#3D3E3F" d="M177.897,91.085l-32.796,89.185h-27.272L83.92,91.085h28.563l19.532,61.727l18.798-61.727H177.897z"/>
		<path fill="#3D3E3F" d="M210.922,160.826h-30.077v4.213c0,2.618,0.924,4.521,2.778,5.7c1.851,1.182,5.332,1.771,10.44,1.771
			c4.599,0,9.771-0.672,15.52-2.013v8.91c-5.876,1.213-11.94,1.819-18.2,1.819c-16.412,0-24.619-5.014-24.619-15.039v-16.667
			c0-5.94,1.917-10.186,5.746-12.74c3.834-2.553,9.547-3.832,17.148-3.832c7.149,0,12.484,1.214,15.996,3.639
			c3.513,2.429,5.269,6.74,5.269,12.934V160.826z M197.607,152.873v-6.703c0-1.469-0.591-2.602-1.773-3.4
			c-1.179-0.797-3.302-1.198-6.369-1.198c-3.382,0-5.666,0.401-6.847,1.198c-1.183,0.799-1.772,1.932-1.772,3.4v6.703H197.607z"/>
		<path fill="#3D3E3F" d="M247.88,144.541h-4.789c-3.834,0-6.723,0.591-8.67,1.773c-1.949,1.181-2.924,3.207-2.924,6.081v27.874
			h-13.985v-46.361h13.315v8.142c0.064-2.297,1.389-4.388,3.977-6.275c2.588-1.882,5.285-2.825,8.092-2.825h4.984V144.541z"/>
		<path fill="#3D3E3F" d="M267.869,180.27h-13.984v-46.361h13.984V180.27z"/>
		<path fill="#3D3E3F" d="M310.259,180.749c-2.68,0.319-5.266,0.479-7.756,0.479c-2.174,0-4.076-0.079-5.701-0.24
			c-1.627-0.16-3.322-0.542-5.076-1.146c-1.756-0.607-3.195-1.406-4.309-2.396c-1.117-0.988-2.049-2.394-2.779-4.215
			c-0.734-1.818-1.102-3.976-1.102-6.465V142.53h-9.389v-8.622h9.389v-13.411h13.986v13.411h12.736v8.622h-12.736v21.837
			c0,3.196,0.477,5.352,1.434,6.468c0.959,1.118,3.066,1.676,6.324,1.676c1.084,0,2.746-0.158,4.979-0.478V180.749z"/>
		<path fill="#3D3E3F" d="M358.933,160.826h-30.078v4.213c0,2.618,0.924,4.521,2.775,5.7c1.854,1.182,5.332,1.771,10.443,1.771
			c4.6,0,9.771-0.672,15.518-2.013v8.91c-5.875,1.213-11.943,1.819-18.199,1.819c-16.412,0-24.619-5.014-24.619-15.039v-16.667
			c0-5.94,1.914-10.186,5.746-12.74c3.834-2.553,9.547-3.832,17.148-3.832c7.15,0,12.482,1.214,15.996,3.639
			c3.512,2.429,5.27,6.74,5.27,12.934V160.826z M345.617,152.873v-6.703c0-1.469-0.59-2.602-1.771-3.4
			c-1.182-0.797-3.303-1.198-6.369-1.198c-3.385,0-5.666,0.401-6.852,1.198c-1.178,0.799-1.77,1.932-1.77,3.4v6.703H345.617z"/>
		<path fill="#3D3E3F" d="M404.781,179.599c-5.619,1.086-10.857,1.629-15.707,1.629c-2.367,0-4.248-0.033-5.652-0.095
			c-1.406-0.064-3.18-0.241-5.318-0.527c-2.141-0.287-3.863-0.781-5.172-1.483s-2.617-1.613-3.926-2.729
			c-1.311-1.117-2.285-2.62-2.922-4.505c-0.641-1.883-0.959-4.101-0.959-6.657V149.81c0-2.298,0.271-4.325,0.816-6.082
			c0.541-1.755,1.211-3.224,2.008-4.409c0.799-1.179,1.92-2.187,3.355-3.015c1.436-0.832,2.762-1.454,3.977-1.869
			c1.213-0.414,2.793-0.751,4.74-1.005c1.947-0.255,3.574-0.399,4.887-0.432c1.305-0.031,3.016-0.049,5.121-0.049
			c3.514,0,8.203,0.576,14.084,1.726v9.196c-6.643-1.533-11.688-2.3-15.137-2.3c-6.449,0-9.672,2.171-9.672,6.515v17.049
			c0,4.92,3.541,7.376,10.629,7.376c3.32,0,8.271-0.7,14.848-2.106V179.599z"/>
		<path fill="#3D3E3F" d="M457.373,180.27h-13.988v-32.377c0-2.553-0.428-4.245-1.293-5.075c-0.861-0.831-2.92-1.246-6.18-1.246
			c-4.021,0-6.576,0.401-7.66,1.198c-1.084,0.799-1.631,2.504-1.631,5.123v32.377h-13.982v-67.053h13.982v26.341
			c0.898-4.404,5.781-6.608,14.658-6.608c6.129,0,10.344,1.104,12.643,3.306c2.303,2.202,3.451,5.541,3.451,10.01V180.27z"/>
		<g>
			<path fill="#72AA43" d="M264.566,127.072c0,1.902-1.641,3.443-3.664,3.443c-2.027,0-3.666-1.541-3.666-3.443
				c0-1.9,1.639-3.441,3.666-3.441C262.925,123.631,264.566,125.172,264.566,127.072z"/>
			<path fill="#72AA43" d="M251.087,119.318c0,0,3.186-3.616,9.924-3.756c6.74-0.139,9.555,3.826,9.555,3.826l-3.109,3.129
				c0,0-3.188-2.503-6.666-2.435c-3.482,0.07-6.297,2.504-6.297,2.504L251.087,119.318z"/>
			<path fill="#72AA43" d="M248.865,117.303c0,0,4-4.452,11.627-4.521c7.629-0.07,12.223,4.382,12.223,4.382l3.629-3.338
				c0,0-6.371-5.982-15.332-5.912c-8.963,0.069-15.85,5.771-15.85,5.771L248.865,117.303z"/>
			<path fill="#72AA43" d="M243.607,112.016c0,0,5.549-6.329,17.184-6.329c11.701,0,17.258,6.259,17.258,6.259l3.924-3.477
				c0,0-7.926-7.93-20.738-7.789c-12.813,0.139-21.627,7.65-21.627,7.65L243.607,112.016z"/>
		</g>
	</g>
</g>
</svg>
